<svg xmlns="http://www.w3.org/2000/svg" viewBox="0 0 426.42 319.91"><defs><style>.cls-1{fill:#d1d1d1;}.cls-2{fill:#adadad;}.cls-3{fill:#7a7a7a;}.cls-4{fill:#949494;}</style></defs><g id="Слой_2" data-name="Слой 2"><g id="Layer_1" data-name="Layer 1"><path class="cls-1" d="M43.42,32.81v254.3c0,18.12,76,32.8,169.79,32.8S383,305.23,383,287.11V32.81Z"/><ellipse class="cls-2" cx="213.21" cy="32.81" rx="169.79" ry="32.81"/><ellipse class="cls-3" cx="213.21" cy="32.81" rx="167.37" ry="30.62"/><path class="cls-4" d="M6.61,83.73H57.08a2.81,2.81,0,0,1,2.81,2.81v20.64A2.81,2.81,0,0,1,57.08,110H6.61A6.61,6.61,0,0,1,0,103.38v-13a6.61,6.61,0,0,1,6.61-6.61Z"/><path class="cls-4" d="M369.34,83.73h50.47a6.61,6.61,0,0,1,6.61,6.61v13a6.61,6.61,0,0,1-6.61,6.61H369.34a2.81,2.81,0,0,1-2.81-2.81V86.54A2.81,2.81,0,0,1,369.34,83.73Z"/></g></g></svg>