<svg xmlns="http://www.w3.org/2000/svg" viewBox="0 0 245.39 171.97"><defs><style>.cls-1{fill:#d97c7c;}.cls-2{fill:#fff;}.cls-3{fill:#a3a3a3;}.cls-4{fill:#bd6c6c;}.cls-5{fill:#bfbfbf;}.cls-6{fill:#f7f7f7;}</style></defs><g id="Слой_2" data-name="Слой 2"><g id="Layer_1" data-name="Layer 1"><rect class="cls-1" y="24.42" width="245.39" height="147.55" rx="27.84"/><circle class="cls-2" cx="81.41" cy="98.2" r="57.64" transform="translate(-45.59 86.33) rotate(-45)"/><circle class="cls-3" cx="81.41" cy="98.2" r="45.94" transform="translate(-45.59 86.33) rotate(-45)"/><path class="cls-4" d="M44.48,14.54H66a6.11,6.11,0,0,1,6.11,6.11v3.78a0,0,0,0,1,0,0H38.38a0,0,0,0,1,0,0V20.64A6.11,6.11,0,0,1,44.48,14.54Z"/><path class="cls-5" d="M178.37,0H206a6.25,6.25,0,0,1,6.25,6.25V24.42a0,0,0,0,1,0,0H172.12a0,0,0,0,1,0,0V6.25A6.25,6.25,0,0,1,178.37,0Z"/><path class="cls-6" d="M180.11,4.07h24.13A3.93,3.93,0,0,1,208.17,8V20.26a0,0,0,0,1,0,0h-32a0,0,0,0,1,0,0V8a3.92,3.92,0,0,1,3.92-3.92Z"/></g></g></svg>